<svg width="1095" height="190" viewBox="0 0 1095 190" fill="none" xmlns="http://www.w3.org/2000/svg">
<path d="M245 99.4319C245 85.6373 246.862 74.5394 250.585 66.1382C254.308 57.6332 259.844 51.462 267.192 47.6244C274.638 43.683 283.946 41.7124 295.116 41.7124C298.545 41.7124 301.631 41.8161 304.375 42.0235C307.216 42.1273 309.861 42.3866 312.311 42.8014C314.858 43.2163 317.308 43.7349 319.659 44.3572C322.011 44.8758 324.411 45.55 326.86 46.3797L321.864 67.2272C318.924 66.5012 316.083 65.9307 313.339 65.5159C310.596 64.9973 307.902 64.6343 305.256 64.4268C302.709 64.1157 300.112 63.9601 297.467 63.9601C292.666 63.9601 288.551 64.5824 285.122 65.827C281.693 67.0716 278.9 69.0423 276.745 71.739C274.589 74.4357 272.973 78.0658 271.895 82.6295C270.817 87.0894 270.278 92.6383 270.278 99.2764C270.278 105.292 270.768 110.374 271.748 114.523C272.826 118.672 274.442 121.991 276.598 124.48C278.753 126.969 281.497 128.784 284.828 129.925C288.257 131.066 292.274 131.637 296.879 131.637C301.19 131.637 305.746 131.274 310.547 130.548C315.446 129.822 319.953 128.888 324.068 127.747L328.477 148.439C326.126 149.165 323.676 149.891 321.129 150.617C318.581 151.24 315.838 151.758 312.899 152.173C310.057 152.692 306.971 153.055 303.64 153.262C300.308 153.573 296.683 153.729 292.764 153.729C284.828 153.729 277.872 152.743 271.895 150.773C265.918 148.802 260.921 145.691 256.904 141.438C252.985 137.186 249.997 131.585 247.939 124.636C245.98 117.686 245 109.285 245 99.4319Z" fill="black"/>
<path d="M350.369 184.689L360.216 152.173H356.983L327.59 67.694L353.897 67.2272L370.798 131.637L386.817 67.2272L411.948 67.5384L375.648 185L350.369 184.689Z" fill="black"/>
<path d="M419.722 149.373V37.045H443.677V73.7615C447.694 71.0648 451.613 69.0942 455.434 67.8495C459.354 66.6049 463.273 65.9826 467.192 65.9826C476.304 65.9826 483.162 69.509 487.767 76.5619C492.47 83.6148 494.821 94.0386 494.821 107.833C494.821 118.724 493.401 127.54 490.559 134.281C487.816 141.023 483.407 145.95 477.332 149.061C471.356 152.173 463.518 153.729 453.818 153.729C449.017 153.729 443.677 153.314 437.798 152.484C432.018 151.758 425.992 150.721 419.722 149.373ZM443.677 133.815C445.735 134.333 447.694 134.748 449.556 135.059C451.417 135.371 453.132 135.526 454.7 135.526C458.227 135.526 461.117 134.748 463.371 133.192C465.624 131.533 467.29 128.836 468.367 125.102C469.445 121.265 469.984 116.131 469.984 109.7C469.984 104.307 469.543 100.002 468.661 96.7871C467.78 93.4681 466.457 91.0307 464.693 89.4749C462.93 87.9191 460.725 87.1412 458.08 87.1412C456.61 87.1412 455.14 87.2968 453.671 87.608C452.201 87.9191 450.634 88.4377 448.968 89.1638C447.4 89.8898 445.637 90.7714 443.677 91.8086V133.815Z" fill="black"/>
<path d="M541.849 153.729C535.578 153.729 530.042 152.951 525.241 151.395C520.44 149.736 516.325 147.246 512.896 143.927C509.565 140.505 507.017 136.148 505.254 130.859C503.49 125.465 502.608 119.087 502.608 111.723C502.608 103.321 503.588 96.2166 505.548 90.4084C507.605 84.6001 510.398 79.8809 513.925 76.2508C517.55 72.6206 521.812 70.0276 526.711 68.4718C531.61 66.8123 536.95 65.9826 542.73 65.9826C554.488 65.9826 563.11 69.0423 568.596 75.1617C574.181 81.2811 576.974 91.2381 576.974 105.033C576.974 106.07 576.925 107.418 576.827 109.078C576.827 110.634 576.778 112.189 576.68 113.745C574.23 113.953 571.242 114.212 567.715 114.523C564.187 114.834 560.268 115.145 555.957 115.457C551.646 115.768 547.09 116.027 542.289 116.234C537.489 116.442 532.59 116.597 527.593 116.701C527.495 117.012 527.446 117.323 527.446 117.635C527.446 117.946 527.446 118.309 527.446 118.724C527.446 122.146 528.083 124.999 529.356 127.28C530.728 129.459 532.786 131.118 535.529 132.259C538.272 133.296 541.849 133.815 546.258 133.815C549.001 133.815 551.891 133.659 554.929 133.348C557.966 133.037 561.052 132.622 564.187 132.103C567.323 131.481 570.458 130.807 573.593 130.081L576.386 148.439C572.956 149.58 569.429 150.565 565.804 151.395C562.179 152.225 558.407 152.795 554.488 153.106C550.569 153.521 546.355 153.729 541.849 153.729ZM527.74 101.61C530.287 101.61 532.835 101.558 535.382 101.454C537.929 101.351 540.33 101.247 542.583 101.143C544.837 100.936 546.845 100.78 548.609 100.677C550.373 100.573 551.842 100.521 553.018 100.521C552.92 96.3722 552.43 93.1051 551.548 90.7196C550.667 88.2303 549.393 86.4671 547.727 85.4299C546.062 84.3927 543.955 83.8741 541.408 83.8741C539.644 83.8741 538.027 84.1334 536.558 84.652C535.088 85.1706 533.716 86.1041 532.443 87.4524C531.267 88.697 530.238 90.5121 529.356 92.8976C528.573 95.1795 528.034 98.0836 527.74 101.61Z" fill="black"/>
<path d="M609.537 67.5384V77.3398C612.28 74.6431 614.779 72.465 617.032 70.8055C619.286 69.146 621.588 67.9533 623.94 67.2272C626.291 66.3975 628.888 65.9826 631.729 65.9826C633.297 65.9826 634.962 66.1382 636.726 66.4493C638.489 66.6568 640.253 67.0716 642.017 67.694L638.195 90.7196C636.432 90.3047 634.668 89.9935 632.905 89.7861C631.141 89.4749 629.524 89.3193 628.055 89.3193C625.507 89.3193 622.911 89.7861 620.266 90.7196C617.62 91.5493 614.779 93.1051 611.741 95.3869V152.173H587.786V67.5384H609.537Z" fill="black"/>
<path d="M644.101 148.906L646.746 130.548C648.51 131.17 650.518 131.792 652.772 132.415C655.123 132.933 657.524 133.4 659.973 133.815C662.422 134.23 664.823 134.541 667.174 134.748C669.624 134.956 671.877 135.059 673.935 135.059C677.756 135.059 680.548 134.489 682.312 133.348C684.173 132.103 685.104 130.392 685.104 128.214C685.104 126.762 684.614 125.621 683.635 124.791C682.753 123.858 681.43 123.028 679.666 122.302C677.903 121.576 675.796 120.954 673.347 120.435C670.897 119.813 668.203 119.087 665.264 118.257C661.933 117.531 659.042 116.494 656.593 115.145C654.143 113.693 652.037 111.982 650.273 110.011C648.608 107.937 647.334 105.603 646.452 103.01C645.668 100.314 645.276 97.3057 645.276 93.9867C645.276 84.652 648.069 77.651 653.653 72.9836C659.238 68.3163 667.517 65.9826 678.491 65.9826C681.822 65.9826 685.006 66.19 688.044 66.6049C691.081 66.9161 693.971 67.3828 696.715 68.0051C699.458 68.6274 701.956 69.4053 704.21 70.3388L701.271 89.0082C699.115 88.1784 696.862 87.5043 694.51 86.9857C692.257 86.4671 689.807 86.0522 687.162 85.741C684.614 85.4299 681.724 85.2743 678.491 85.2743C674.964 85.2743 672.318 85.7929 670.555 86.8301C668.791 87.8673 667.909 89.4749 667.909 91.653C667.909 93.0014 668.252 94.0904 668.938 94.9202C669.624 95.6462 670.653 96.3204 672.024 96.9427C673.396 97.4613 675.062 97.9799 677.021 98.4985C679.079 98.9133 681.43 99.4319 684.075 100.054C687.603 100.78 690.836 101.766 693.775 103.01C696.813 104.255 699.409 105.863 701.565 107.833C703.72 109.7 705.386 112.086 706.561 114.99C707.835 117.894 708.472 121.472 708.472 125.725C708.472 129.873 707.835 133.504 706.561 136.615C705.386 139.727 703.72 142.372 701.565 144.55C699.409 146.728 696.862 148.491 693.922 149.839C691.081 151.188 687.897 152.173 684.369 152.795C680.842 153.418 677.217 153.729 673.494 153.729C669.967 153.729 666.537 153.521 663.206 153.106C659.875 152.795 656.642 152.329 653.506 151.706C650.371 150.98 647.236 150.047 644.101 148.906Z" fill="black"/>
<path d="M717.673 152.173V37.045H741.776V74.2282C744.519 72.3613 747.165 70.8574 749.712 69.7165C752.358 68.4718 755.003 67.5384 757.648 66.9161C760.392 66.2938 763.184 65.9826 766.025 65.9826C771.12 65.9826 775.382 66.9679 778.812 68.9386C782.241 70.8055 784.837 73.6059 786.601 77.3398C788.462 80.97 789.393 85.4299 789.393 90.7196V152.173H765.144V98.654C765.144 94.7127 764.311 91.8605 762.645 90.0972C761.078 88.334 758.775 87.4524 755.738 87.4524C754.17 87.4524 752.603 87.6598 751.035 88.0747C749.565 88.3859 748.047 88.8526 746.479 89.4749C745.009 89.9935 743.442 90.6677 741.776 91.4974V152.173H717.673Z" fill="black"/>
<path d="M814.833 58.5148C809.934 58.5148 806.309 57.4776 803.958 55.4033C801.704 53.3289 800.578 50.1136 800.578 45.7574C800.578 41.4012 801.704 38.1859 803.958 36.1116C806.309 34.0372 809.934 33 814.833 33C819.732 33 823.308 34.0372 825.562 36.1116C827.815 38.1859 828.942 41.4012 828.942 45.7574C828.942 50.1136 827.815 53.3289 825.562 55.4033C823.406 57.4776 819.83 58.5148 814.833 58.5148ZM802.782 152.173V67.5384H826.738V152.173H802.782Z" fill="black"/>
<path d="M876.542 153.729C870.272 153.729 864.736 152.951 859.935 151.395C855.134 149.736 851.019 147.246 847.59 143.927C844.258 140.505 841.711 136.148 839.947 130.859C838.184 125.465 837.302 119.087 837.302 111.723C837.302 103.321 838.282 96.2166 840.241 90.4084C842.299 84.6001 845.091 79.8809 848.618 76.2508C852.244 72.6206 856.506 70.0276 861.404 68.4718C866.303 66.8123 871.643 65.9826 877.424 65.9826C889.181 65.9826 897.803 69.0423 903.29 75.1617C908.875 81.2811 911.667 91.2381 911.667 105.033C911.667 106.07 911.618 107.418 911.52 109.078C911.52 110.634 911.471 112.189 911.373 113.745C908.924 113.953 905.935 114.212 902.408 114.523C898.881 114.834 894.962 115.145 890.651 115.457C886.34 115.768 881.784 116.027 876.983 116.234C872.182 116.442 867.283 116.597 862.286 116.701C862.188 117.012 862.139 117.323 862.139 117.635C862.139 117.946 862.139 118.309 862.139 118.724C862.139 122.146 862.776 124.999 864.05 127.28C865.422 129.459 867.479 131.118 870.222 132.259C872.966 133.296 876.542 133.815 880.951 133.815C883.694 133.815 886.585 133.659 889.622 133.348C892.659 133.037 895.746 132.622 898.881 132.103C902.016 131.481 905.152 130.807 908.287 130.081L911.079 148.439C907.65 149.58 904.123 150.565 900.498 151.395C896.872 152.225 893.1 152.795 889.181 153.106C885.262 153.521 881.049 153.729 876.542 153.729ZM862.433 101.61C864.981 101.61 867.528 101.558 870.076 101.454C872.623 101.351 875.023 101.247 877.277 101.143C879.53 100.936 881.539 100.78 883.303 100.677C885.066 100.573 886.536 100.521 887.712 100.521C887.614 96.3722 887.124 93.1051 886.242 90.7196C885.36 88.2303 884.086 86.4671 882.421 85.4299C880.755 84.3927 878.649 83.8741 876.101 83.8741C874.338 83.8741 872.721 84.1334 871.251 84.652C869.782 85.1706 868.41 86.1041 867.136 87.4524C865.96 88.697 864.932 90.5121 864.05 92.8976C863.266 95.1795 862.727 98.0836 862.433 101.61Z" fill="black"/>
<path d="M946.292 37.045V122.302C946.292 124.895 946.585 126.917 947.173 128.369C947.761 129.718 948.545 130.651 949.525 131.17C950.603 131.585 951.778 131.792 953.052 131.792C953.934 131.792 954.914 131.688 955.991 131.481C957.167 131.274 958.441 130.962 959.812 130.548L962.017 149.995C959.861 151.032 957.412 151.914 954.669 152.64C951.925 153.366 948.937 153.729 945.704 153.729C940.609 153.729 936.298 152.847 932.771 151.084C929.341 149.217 926.745 146.157 924.981 141.905C923.218 137.652 922.336 131.896 922.336 124.636V37.045H946.292Z" fill="black"/>
<path d="M1018.84 152.329L1016.04 145.95C1012.13 148.543 1008.21 150.513 1004.29 151.862C1000.37 153.106 996.253 153.729 991.942 153.729C983.222 153.729 976.461 150.099 971.661 142.838C966.958 135.578 964.606 125.102 964.606 111.411C964.606 101.143 965.978 92.6902 968.721 86.0522C971.563 79.3105 975.825 74.2801 981.507 70.9611C987.19 67.6421 994.391 65.9826 1003.11 65.9826C1005.07 65.9826 1007.13 66.0863 1009.28 66.2938C1011.54 66.3975 1013.69 66.6568 1015.75 67.0716V37.045H1040V152.329H1018.84ZM1015.75 128.214V86.2078C1013.79 85.5855 1011.88 85.1706 1010.02 84.9632C1008.26 84.652 1006.49 84.4964 1004.73 84.4964C1001.3 84.4964 998.457 85.2743 996.204 86.8301C993.95 88.3859 992.285 90.927 991.207 94.4534C990.129 97.9799 989.59 102.803 989.59 108.922C989.59 114.523 990.031 119.087 990.913 122.613C991.893 126.036 993.265 128.577 995.028 130.236C996.792 131.792 998.947 132.57 1001.49 132.57C1002.96 132.57 1004.43 132.415 1005.9 132.103C1007.47 131.792 1009.04 131.325 1010.61 130.703C1012.27 129.977 1013.99 129.147 1015.75 128.214Z" fill="black"/>
<path d="M188.046 95.4001C194.424 91.0806 199.433 85.4112 202.907 78.9983C201.441 77.3549 199.941 75.5549 198.424 73.6158C197.607 72.5724 196.148 72.3028 195 72.9637C194.994 72.968 194.987 72.9724 194.981 72.9745C185.005 78.7027 172.275 75.2593 166.549 65.2834C160.821 55.3076 164.264 42.5775 174.24 36.8515L174.262 36.8385C175.479 36.1407 176.005 34.6581 175.498 33.3516C174.575 30.9647 173.775 28.6778 173.109 26.517C165.779 26.23 158.308 27.6626 151.31 30.9777C150.686 23.5431 148.321 16.602 144.628 10.5587C142.471 11.0021 140.162 11.3956 137.723 11.7347C136.41 11.9173 135.445 13.0434 135.441 14.3695C135.441 14.3782 135.441 14.3847 135.441 14.3934C135.391 25.8953 126.024 35.1798 114.522 35.1276C103.02 35.0755 93.7353 25.7105 93.7874 14.2086V14.1825C93.794 12.7804 92.7766 11.5804 91.3919 11.363C88.8637 10.9652 86.4833 10.5087 84.2812 10C80.3704 16.1716 77.8639 23.3214 77.2074 31.0017C70.2598 27.6257 62.8252 26.1213 55.5166 26.3235C54.8275 28.4148 54.021 30.6147 53.1015 32.8973C52.6058 34.1277 53.1015 35.5233 54.2515 36.1885C54.258 36.1928 54.2645 36.1972 54.271 36.1994C64.223 41.9666 67.6142 54.7098 61.8469 64.6639C56.0797 74.618 43.3365 78.007 33.3824 72.2398L33.3607 72.2267C32.1477 71.5224 30.602 71.8094 29.7216 72.9028C28.1195 74.8984 26.5391 76.7353 25 78.3918C28.4825 84.996 33.5781 90.8372 40.1148 95.2653C33.6911 99.6043 28.6543 105.313 25.1696 111.769C26.6369 113.411 28.1412 115.208 29.6608 117.145C30.4781 118.189 31.939 118.456 33.0868 117.791C33.0933 117.786 33.0998 117.782 33.1063 117.78C43.0735 112.037 55.8079 115.46 61.5513 125.425C67.2946 135.39 63.8708 148.127 53.9058 153.87L53.8841 153.883C52.6689 154.583 52.145 156.066 52.6537 157.372C53.5819 159.757 54.3841 162.044 55.0536 164.203C62.423 164.479 69.9359 163.018 76.9596 159.653C77.5705 167.459 80.0943 174.724 84.0594 180.983C86.2615 180.474 88.6419 180.018 91.1701 179.62C92.5549 179.402 93.5744 178.202 93.5679 176.8V176.774C93.5157 165.272 102.8 155.905 114.302 155.855C125.804 155.805 135.171 165.088 135.221 176.589C135.221 176.598 135.221 176.605 135.221 176.613C135.226 177.939 136.191 179.065 137.504 179.248C139.943 179.587 142.251 179.981 144.408 180.424C148.151 174.3 150.527 167.25 151.112 159.703C157.968 162.972 165.288 164.427 172.483 164.227C173.172 162.135 173.979 159.935 174.899 157.653C175.394 156.423 174.899 155.027 173.749 154.362C173.742 154.357 173.736 154.353 173.729 154.351C163.777 148.584 160.386 135.84 166.153 125.886C171.92 115.932 184.663 112.543 194.618 118.31L194.639 118.323C195.852 119.028 197.398 118.741 198.278 117.647C199.881 115.652 201.461 113.815 203 112.158C199.548 105.611 194.507 99.8109 188.048 95.3979L188.046 95.4001ZM113.83 110.135C110.202 110.908 106.733 112.104 103.47 113.663C103.183 110.021 102.465 106.385 101.298 102.824C98.7156 99.9304 95.8178 97.4153 92.6918 95.2957C95.8048 93.1915 98.6917 90.6937 101.268 87.822C102.422 84.3351 103.142 80.77 103.448 77.2027C106.781 78.8201 110.331 80.0548 114.048 80.8483C117.756 80.0918 121.304 78.894 124.637 77.3179C124.937 80.8461 125.637 84.3678 126.763 87.8198C129.31 90.685 132.169 93.1806 135.252 95.2914C132.158 97.3892 129.291 99.8739 126.728 102.73C125.534 106.337 124.806 110.024 124.517 113.715C121.154 112.115 117.574 110.902 113.828 110.137L113.83 110.135Z" fill="black"/>
</svg>
