<svg width="1095" height="206" viewBox="0 0 1095 206" fill="none" xmlns="http://www.w3.org/2000/svg">
<path d="M243 102.432C243 88.6373 244.862 77.5394 248.585 69.1382C252.308 60.6332 257.844 54.462 265.192 50.6244C272.638 46.683 281.946 44.7124 293.116 44.7124C296.545 44.7124 299.631 44.8161 302.375 45.0235C305.216 45.1273 307.861 45.3866 310.311 45.8014C312.858 46.2163 315.308 46.7349 317.659 47.3572C320.011 47.8758 322.411 48.55 324.86 49.3797L319.864 70.2272C316.924 69.5012 314.083 68.9307 311.339 68.5159C308.596 67.9973 305.902 67.6343 303.256 67.4268C300.709 67.1157 298.112 66.9601 295.467 66.9601C290.666 66.9601 286.551 67.5824 283.122 68.827C279.693 70.0716 276.9 72.0423 274.745 74.739C272.589 77.4357 270.973 81.0658 269.895 85.6295C268.817 90.0894 268.278 95.6383 268.278 102.276C268.278 108.292 268.768 113.374 269.748 117.523C270.826 121.672 272.442 124.991 274.598 127.48C276.753 129.969 279.497 131.784 282.828 132.925C286.257 134.066 290.274 134.637 294.879 134.637C299.19 134.637 303.746 134.274 308.547 133.548C313.446 132.822 317.953 131.888 322.068 130.747L326.477 151.439C324.126 152.165 321.676 152.891 319.129 153.617C316.581 154.24 313.838 154.758 310.899 155.173C308.057 155.692 304.971 156.055 301.64 156.262C298.308 156.573 294.683 156.729 290.764 156.729C282.828 156.729 275.872 155.743 269.895 153.773C263.918 151.802 258.921 148.691 254.904 144.438C250.985 140.186 247.997 134.585 245.939 127.636C243.98 120.686 243 112.285 243 102.432Z" fill="black"/>
<path d="M348.369 187.689L358.216 155.173H354.983L325.59 70.694L351.897 70.2272L368.798 134.637L384.817 70.2272L409.948 70.5384L373.648 188L348.369 187.689Z" fill="black"/>
<path d="M417.722 152.373V40.045H441.677V76.7615C445.694 74.0648 449.613 72.0942 453.434 70.8495C457.354 69.6049 461.273 68.9826 465.192 68.9826C474.304 68.9826 481.162 72.509 485.767 79.5619C490.47 86.6148 492.821 97.0386 492.821 110.833C492.821 121.724 491.401 130.54 488.559 137.281C485.816 144.023 481.407 148.95 475.332 152.061C469.356 155.173 461.518 156.729 451.818 156.729C447.017 156.729 441.677 156.314 435.798 155.484C430.018 154.758 423.992 153.721 417.722 152.373ZM441.677 136.815C443.735 137.333 445.694 137.748 447.556 138.059C449.417 138.371 451.132 138.526 452.7 138.526C456.227 138.526 459.117 137.748 461.371 136.192C463.624 134.533 465.29 131.836 466.367 128.102C467.445 124.265 467.984 119.131 467.984 112.7C467.984 107.307 467.543 103.002 466.661 99.7871C465.78 96.4681 464.457 94.0307 462.693 92.4749C460.93 90.9191 458.725 90.1412 456.08 90.1412C454.61 90.1412 453.14 90.2968 451.671 90.608C450.201 90.9191 448.634 91.4377 446.968 92.1638C445.4 92.8898 443.637 93.7714 441.677 94.8086V136.815Z" fill="black"/>
<path d="M539.849 156.729C533.578 156.729 528.042 155.951 523.241 154.395C518.44 152.736 514.325 150.246 510.896 146.927C507.565 143.505 505.017 139.148 503.254 133.859C501.49 128.465 500.608 122.087 500.608 114.723C500.608 106.321 501.588 99.2166 503.548 93.4084C505.605 87.6001 508.398 82.8809 511.925 79.2508C515.55 75.6206 519.812 73.0276 524.711 71.4718C529.61 69.8123 534.95 68.9826 540.73 68.9826C552.488 68.9826 561.11 72.0423 566.596 78.1617C572.181 84.2811 574.974 94.2381 574.974 108.033C574.974 109.07 574.925 110.418 574.827 112.078C574.827 113.634 574.778 115.189 574.68 116.745C572.23 116.953 569.242 117.212 565.715 117.523C562.187 117.834 558.268 118.145 553.957 118.457C549.646 118.768 545.09 119.027 540.289 119.234C535.489 119.442 530.59 119.597 525.593 119.701C525.495 120.012 525.446 120.323 525.446 120.635C525.446 120.946 525.446 121.309 525.446 121.724C525.446 125.146 526.083 127.999 527.356 130.28C528.728 132.459 530.786 134.118 533.529 135.259C536.272 136.296 539.849 136.815 544.258 136.815C547.001 136.815 549.891 136.659 552.929 136.348C555.966 136.037 559.052 135.622 562.187 135.103C565.323 134.481 568.458 133.807 571.593 133.081L574.386 151.439C570.956 152.58 567.429 153.565 563.804 154.395C560.179 155.225 556.407 155.795 552.488 156.106C548.569 156.521 544.355 156.729 539.849 156.729ZM525.74 104.61C528.287 104.61 530.835 104.558 533.382 104.454C535.929 104.351 538.33 104.247 540.583 104.143C542.837 103.936 544.845 103.78 546.609 103.677C548.373 103.573 549.842 103.521 551.018 103.521C550.92 99.3722 550.43 96.1051 549.548 93.7196C548.667 91.2303 547.393 89.4671 545.727 88.4299C544.062 87.3927 541.955 86.8741 539.408 86.8741C537.644 86.8741 536.027 87.1334 534.558 87.652C533.088 88.1706 531.716 89.1041 530.443 90.4524C529.267 91.697 528.238 93.5121 527.356 95.8976C526.573 98.1795 526.034 101.084 525.74 104.61Z" fill="black"/>
<path d="M607.537 70.5384V80.3398C610.28 77.6431 612.779 75.465 615.032 73.8055C617.286 72.146 619.588 70.9533 621.94 70.2272C624.291 69.3975 626.888 68.9826 629.729 68.9826C631.297 68.9826 632.962 69.1382 634.726 69.4493C636.489 69.6568 638.253 70.0716 640.017 70.694L636.195 93.7196C634.432 93.3047 632.668 92.9935 630.905 92.7861C629.141 92.4749 627.524 92.3193 626.055 92.3193C623.507 92.3193 620.911 92.7861 618.266 93.7196C615.62 94.5493 612.779 96.1051 609.741 98.3869V155.173H585.786V70.5384H607.537Z" fill="black"/>
<path d="M642.101 151.906L644.746 133.548C646.51 134.17 648.518 134.792 650.772 135.415C653.123 135.933 655.524 136.4 657.973 136.815C660.422 137.23 662.823 137.541 665.174 137.748C667.624 137.956 669.877 138.059 671.935 138.059C675.756 138.059 678.548 137.489 680.312 136.348C682.173 135.103 683.104 133.392 683.104 131.214C683.104 129.762 682.614 128.621 681.635 127.791C680.753 126.858 679.43 126.028 677.666 125.302C675.903 124.576 673.796 123.954 671.347 123.435C668.897 122.813 666.203 122.087 663.264 121.257C659.933 120.531 657.042 119.494 654.593 118.145C652.143 116.693 650.037 114.982 648.273 113.011C646.608 110.937 645.334 108.603 644.452 106.01C643.668 103.314 643.276 100.306 643.276 96.9867C643.276 87.652 646.069 80.651 651.653 75.9836C657.238 71.3163 665.517 68.9826 676.491 68.9826C679.822 68.9826 683.006 69.19 686.044 69.6049C689.081 69.9161 691.971 70.3828 694.715 71.0051C697.458 71.6274 699.956 72.4053 702.21 73.3388L699.271 92.0082C697.115 91.1784 694.862 90.5043 692.51 89.9857C690.257 89.4671 687.807 89.0522 685.162 88.741C682.614 88.4299 679.724 88.2743 676.491 88.2743C672.964 88.2743 670.318 88.7929 668.555 89.8301C666.791 90.8673 665.909 92.4749 665.909 94.653C665.909 96.0014 666.252 97.0904 666.938 97.9202C667.624 98.6462 668.653 99.3204 670.024 99.9427C671.396 100.461 673.062 100.98 675.021 101.498C677.079 101.913 679.43 102.432 682.075 103.054C685.603 103.78 688.836 104.766 691.775 106.01C694.813 107.255 697.409 108.863 699.565 110.833C701.72 112.7 703.386 115.086 704.561 117.99C705.835 120.894 706.472 124.472 706.472 128.725C706.472 132.873 705.835 136.504 704.561 139.615C703.386 142.727 701.72 145.372 699.565 147.55C697.409 149.728 694.862 151.491 691.922 152.839C689.081 154.188 685.897 155.173 682.369 155.795C678.842 156.418 675.217 156.729 671.494 156.729C667.967 156.729 664.537 156.521 661.206 156.106C657.875 155.795 654.642 155.329 651.506 154.706C648.371 153.98 645.236 153.047 642.101 151.906Z" fill="black"/>
<path d="M715.673 155.173V40.045H739.776V77.2282C742.519 75.3613 745.165 73.8574 747.712 72.7165C750.358 71.4718 753.003 70.5384 755.648 69.9161C758.392 69.2938 761.184 68.9826 764.025 68.9826C769.12 68.9826 773.382 69.9679 776.812 71.9386C780.241 73.8055 782.837 76.6059 784.601 80.3398C786.462 83.97 787.393 88.4299 787.393 93.7196V155.173H763.144V101.654C763.144 97.7127 762.311 94.8605 760.645 93.0972C759.078 91.334 756.775 90.4524 753.738 90.4524C752.17 90.4524 750.603 90.6598 749.035 91.0747C747.565 91.3859 746.047 91.8526 744.479 92.4749C743.009 92.9935 741.442 93.6677 739.776 94.4974V155.173H715.673Z" fill="black"/>
<path d="M812.833 61.5148C807.934 61.5148 804.309 60.4776 801.958 58.4033C799.704 56.3289 798.578 53.1136 798.578 48.7574C798.578 44.4012 799.704 41.1859 801.958 39.1116C804.309 37.0372 807.934 36 812.833 36C817.732 36 821.308 37.0372 823.562 39.1116C825.815 41.1859 826.942 44.4012 826.942 48.7574C826.942 53.1136 825.815 56.3289 823.562 58.4033C821.406 60.4776 817.83 61.5148 812.833 61.5148ZM800.782 155.173V70.5384H824.738V155.173H800.782Z" fill="black"/>
<path d="M874.542 156.729C868.272 156.729 862.736 155.951 857.935 154.395C853.134 152.736 849.019 150.246 845.59 146.927C842.258 143.505 839.711 139.148 837.947 133.859C836.184 128.465 835.302 122.087 835.302 114.723C835.302 106.321 836.282 99.2166 838.241 93.4084C840.299 87.6001 843.091 82.8809 846.618 79.2508C850.244 75.6206 854.506 73.0276 859.404 71.4718C864.303 69.8123 869.643 68.9826 875.424 68.9826C887.181 68.9826 895.803 72.0423 901.29 78.1617C906.875 84.2811 909.667 94.2381 909.667 108.033C909.667 109.07 909.618 110.418 909.52 112.078C909.52 113.634 909.471 115.189 909.373 116.745C906.924 116.953 903.935 117.212 900.408 117.523C896.881 117.834 892.962 118.145 888.651 118.457C884.34 118.768 879.784 119.027 874.983 119.234C870.182 119.442 865.283 119.597 860.286 119.701C860.188 120.012 860.139 120.323 860.139 120.635C860.139 120.946 860.139 121.309 860.139 121.724C860.139 125.146 860.776 127.999 862.05 130.28C863.422 132.459 865.479 134.118 868.222 135.259C870.966 136.296 874.542 136.815 878.951 136.815C881.694 136.815 884.585 136.659 887.622 136.348C890.659 136.037 893.746 135.622 896.881 135.103C900.016 134.481 903.152 133.807 906.287 133.081L909.079 151.439C905.65 152.58 902.123 153.565 898.498 154.395C894.872 155.225 891.1 155.795 887.181 156.106C883.262 156.521 879.049 156.729 874.542 156.729ZM860.433 104.61C862.981 104.61 865.528 104.558 868.076 104.454C870.623 104.351 873.023 104.247 875.277 104.143C877.53 103.936 879.539 103.78 881.303 103.677C883.066 103.573 884.536 103.521 885.712 103.521C885.614 99.3722 885.124 96.1051 884.242 93.7196C883.36 91.2303 882.086 89.4671 880.421 88.4299C878.755 87.3927 876.649 86.8741 874.101 86.8741C872.338 86.8741 870.721 87.1334 869.251 87.652C867.782 88.1706 866.41 89.1041 865.136 90.4524C863.96 91.697 862.932 93.5121 862.05 95.8976C861.266 98.1795 860.727 101.084 860.433 104.61Z" fill="black"/>
<path d="M944.292 40.045V125.302C944.292 127.895 944.585 129.917 945.173 131.369C945.761 132.718 946.545 133.651 947.525 134.17C948.603 134.585 949.778 134.792 951.052 134.792C951.934 134.792 952.914 134.688 953.991 134.481C955.167 134.274 956.441 133.962 957.812 133.548L960.017 152.995C957.861 154.032 955.412 154.914 952.669 155.64C949.925 156.366 946.937 156.729 943.704 156.729C938.609 156.729 934.298 155.847 930.771 154.084C927.341 152.217 924.745 149.157 922.981 144.905C921.218 140.652 920.336 134.896 920.336 127.636V40.045H944.292Z" fill="black"/>
<path d="M1016.84 155.329L1014.04 148.95C1010.13 151.543 1006.21 153.513 1002.29 154.862C998.368 156.106 994.253 156.729 989.942 156.729C981.222 156.729 974.461 153.099 969.661 145.838C964.958 138.578 962.606 128.102 962.606 114.411C962.606 104.143 963.978 95.6902 966.721 89.0522C969.563 82.3105 973.825 77.2801 979.507 73.9611C985.19 70.6421 992.391 68.9826 1001.11 68.9826C1003.07 68.9826 1005.13 69.0863 1007.28 69.2938C1009.54 69.3975 1011.69 69.6568 1013.75 70.0716V40.045H1038V155.329H1016.84ZM1013.75 131.214V89.2078C1011.79 88.5855 1009.88 88.1706 1008.02 87.9632C1006.26 87.652 1004.49 87.4964 1002.73 87.4964C999.299 87.4964 996.457 88.2743 994.204 89.8301C991.95 91.3859 990.285 93.927 989.207 97.4534C988.129 100.98 987.59 105.803 987.59 111.922C987.59 117.523 988.031 122.087 988.913 125.613C989.893 129.036 991.265 131.577 993.028 133.236C994.792 134.792 996.947 135.57 999.495 135.57C1000.96 135.57 1002.43 135.415 1003.9 135.103C1005.47 134.792 1007.04 134.325 1008.61 133.703C1010.27 132.977 1011.99 132.147 1013.75 131.214Z" fill="black"/>
<path d="M58.9471 31.091C58.2257 33.2802 57.3814 35.5833 56.4188 37.9729C55.8999 39.2609 56.4188 40.722 57.6226 41.4184C57.6295 41.4229 57.6363 41.4275 57.6431 41.4297C68.0616 47.4673 71.6118 60.8078 65.5742 71.2286C59.5366 81.647 46.196 85.1972 35.7753 79.1596L35.7526 79.1459C34.4827 78.4086 32.8646 78.709 31.943 79.8537C30.2657 81.9428 28.6112 83.8659 27 85.6C31.1533 93.4764 37.5004 100.32 45.7728 105.115C66.2182 116.965 91.668 112.395 106.845 95.4722C113.984 73.8912 105.298 49.5383 84.8521 37.6884C76.689 32.9571 67.7293 30.8475 58.9449 31.091H58.9471Z" fill="url(#paint0_linear_1_2)"/>
<path d="M152.012 192.415C149.755 191.951 147.338 191.539 144.784 191.184C143.41 190.993 142.399 189.814 142.395 188.426C142.395 188.417 142.395 188.41 142.395 188.401C142.342 176.36 132.536 166.64 120.495 166.694C108.454 166.747 98.7343 176.553 98.7889 188.594V188.621C98.7958 190.089 97.7307 191.346 96.2811 191.573C93.6343 191.99 91.1424 192.467 88.837 193C84.0716 185.479 81.2929 176.569 81.2519 167.006C81.1472 143.375 97.774 123.576 120.006 118.828C142.279 123.375 159.081 143.029 159.185 166.658C159.226 176.091 156.6 184.914 152.017 192.413L152.012 192.415Z" fill="url(#paint1_linear_1_2)"/>
<path d="M27.1821 120.54C28.7182 122.258 30.293 124.14 31.8838 126.168C32.7395 127.26 34.2688 127.54 35.4704 126.844C35.4772 126.839 35.484 126.835 35.4909 126.832C45.9252 120.82 59.2566 124.404 65.2692 134.836C71.2818 145.27 67.6974 158.602 57.2654 164.614L57.2426 164.628C55.9704 165.361 55.422 166.913 55.9545 168.281C56.9263 170.777 57.766 173.171 58.467 175.431C67.3652 175.766 76.4637 173.681 84.7475 168.907C105.222 157.107 113.968 132.774 106.881 111.175C91.7454 94.216 66.307 89.5849 45.8319 101.385C37.6574 106.096 31.3558 112.804 27.1821 120.54Z" fill="url(#paint2_linear_1_2)"/>
<path d="M213.253 86.2327C211.719 84.5122 210.149 82.6279 208.56 80.5979C207.705 79.5055 206.177 79.2233 204.976 79.9152C204.969 79.9197 204.962 79.9243 204.955 79.9265C194.512 85.9232 181.185 82.3184 175.191 71.8749C169.194 61.4314 172.799 48.1046 183.242 42.1102L183.265 42.0966C184.54 41.366 185.09 39.814 184.56 38.4462C183.593 35.9475 182.755 33.5533 182.059 31.2912C173.161 30.9431 164.06 33.0117 155.769 37.7726C135.276 49.5406 126.492 73.8571 133.544 95.4677C148.653 112.452 174.085 117.124 194.578 105.356C202.759 100.659 209.072 93.9589 213.257 86.2304L213.253 86.2327Z" fill="url(#paint3_linear_1_2)"/>
<path d="M152.237 14.5849C149.98 15.0491 147.563 15.461 145.01 15.8161C143.635 16.0072 142.625 17.1861 142.62 18.5743C142.62 18.5834 142.62 18.5902 142.62 18.5993C142.568 30.6404 132.761 40.3601 120.72 40.3055C108.679 40.2532 98.9596 30.4469 99.0142 18.4059V18.3786C99.021 16.9107 97.956 15.6545 96.5063 15.4269C93.8596 15.0104 91.3676 14.5325 89.0623 14C84.2968 21.5214 81.5181 30.431 81.4772 39.9937C81.3725 63.6253 97.9992 83.4244 120.231 88.1716C142.504 83.6246 159.306 63.9712 159.411 40.3419C159.452 30.9089 156.825 22.0858 152.242 14.5871L152.237 14.5849Z" fill="url(#paint4_linear_1_2)"/>
<path d="M181.406 175.458C182.127 173.269 182.972 170.966 183.934 168.577C184.453 167.288 183.934 165.827 182.73 165.131C182.724 165.126 182.717 165.122 182.71 165.12C172.291 159.082 168.741 145.742 174.779 135.321C180.816 124.902 194.157 121.352 204.578 127.39L204.6 127.403C205.87 128.141 207.488 127.84 208.41 126.696C210.087 124.607 211.742 122.684 213.353 120.949C209.2 113.073 202.853 106.23 194.58 101.435C174.135 89.5849 148.685 94.1546 133.508 111.077C126.369 132.658 135.055 157.011 155.501 168.861C163.664 173.592 172.624 175.702 181.408 175.458H181.406Z" fill="url(#paint5_linear_1_2)"/>
<defs>
<linearGradient id="paint0_linear_1_2" x1="36.1076" y1="55.0388" x2="124.236" y2="104.407" gradientUnits="userSpaceOnUse">
<stop stop-color="#BFFFDC"/>
<stop offset="0.54" stop-color="#4DAACA"/>
<stop offset="0.9" stop-color="#0071BF"/>
</linearGradient>
<linearGradient id="paint1_linear_1_2" x1="119.872" y1="200.311" x2="120.902" y2="99.3027" gradientUnits="userSpaceOnUse">
<stop stop-color="#BFFFDC"/>
<stop offset="0.54" stop-color="#4DAACA"/>
<stop offset="0.9" stop-color="#0071BF"/>
</linearGradient>
<linearGradient id="paint2_linear_1_2" x1="36.5309" y1="152.287" x2="123.304" y2="100.573" gradientUnits="userSpaceOnUse">
<stop stop-color="#BFFFDC"/>
<stop offset="0.54" stop-color="#4DAACA"/>
<stop offset="0.9" stop-color="#0071BF"/>
</linearGradient>
<linearGradient id="paint3_linear_1_2" x1="203.955" y1="54.4729" x2="117.1" y2="106.05" gradientUnits="userSpaceOnUse">
<stop stop-color="#BFFFDC"/>
<stop offset="0.54" stop-color="#4DAACA"/>
<stop offset="0.9" stop-color="#0071BF"/>
</linearGradient>
<linearGradient id="paint4_linear_1_2" x1="120.1" y1="6.68764" x2="121.128" y2="107.697" gradientUnits="userSpaceOnUse">
<stop stop-color="#BFFFDC"/>
<stop offset="0.54" stop-color="#4DAACA"/>
<stop offset="0.9" stop-color="#0071BF"/>
</linearGradient>
<linearGradient id="paint5_linear_1_2" x1="204.245" y1="151.511" x2="116.117" y2="102.145" gradientUnits="userSpaceOnUse">
<stop stop-color="#BFFFDC"/>
<stop offset="0.54" stop-color="#4DAACA"/>
<stop offset="0.9" stop-color="#0071BF"/>
</linearGradient>
</defs>
</svg>
